<svg width="188" height="53" viewBox="0 0 188 53" fill="none" xmlns="http://www.w3.org/2000/svg">
<path d="M75.6788 27.6053H7.10229V2.97369H75.6788V27.6053Z" fill="#680707"/>
<path d="M14.4676 17.1053H19.9653L17.2296 8.86846L14.4676 17.1053ZM13.9152 18.5264L12.9682 21.0527C12.863 21.4211 12.8104 21.7369 12.8104 22.0264C12.8104 23.0264 13.4154 23.5264 14.6517 23.579V24.4737H9.15405V23.6053C9.70645 23.579 10.2589 22.8685 10.8639 21.4737L16.8876 5.57899H18.6238L24.6739 21.4737C25.2526 22.8685 25.8313 23.579 26.3837 23.6053V24.4737H19.5444V23.6053C20.8597 23.6053 21.5173 23.079 21.5173 22.0527C21.5173 21.7895 21.4647 21.4737 21.3595 21.079L20.5177 18.5264H13.9152ZM39.1941 5.55267V10.5527H37.984C37.984 8.18425 37.1949 6.97372 35.5903 6.97372H33.6175V22.0527C33.6175 23.0527 34.2751 23.5527 35.564 23.579V24.4737H28.9089V23.6053C30.1978 23.579 30.8555 23.079 30.8555 22.079V7.00004H28.8826C27.278 7.00004 26.4889 8.18425 26.4889 10.579H25.2789V5.57899H39.1941V5.55267ZM58.2124 15.1316C58.2124 17.9737 57.5022 20.2895 56.0554 22.0264C54.6613 23.7895 52.5306 24.6579 49.6897 24.6579C46.7435 24.6579 44.5339 23.7895 43.0872 22.0264C41.6404 20.2895 40.9302 17.9737 40.9302 15.1316C40.9302 12.1579 41.6404 9.78951 43.0609 8.02635C44.5076 6.2632 46.612 5.39478 49.4266 5.39478C52.4254 5.39478 54.635 6.2632 56.0817 8.02635C57.5022 9.78951 58.2124 12.1579 58.2124 15.1316ZM49.6897 23.4737C51.3995 23.4737 52.7147 22.7369 53.6354 21.2895C54.5823 19.8158 55.0295 17.7632 55.0295 15.1053C54.9769 12.4737 54.4508 10.4211 53.4512 8.92109C52.4254 7.42109 51.0838 6.68425 49.4266 6.68425C47.7431 6.68425 46.4279 7.42109 45.5072 8.86846C44.5602 10.3421 44.0868 12.4211 44.0868 15.1053C44.1394 17.6843 44.6918 19.7369 45.7176 21.2106C46.7698 22.7369 48.0851 23.4737 49.6897 23.4737ZM63.1051 13.6053C61.8688 12.6842 61.1848 11.5264 61.0796 10.1316C61.0796 8.84214 61.6057 7.71056 62.6579 6.78951C63.6838 5.86846 65.1569 5.39478 67.1034 5.39478C69.0237 5.39478 70.5756 5.94741 71.7856 7.05267V10.579H70.8913C70.523 9.13162 70.0495 8.13162 69.4445 7.57899C68.8132 7.02635 68.0767 6.7632 67.2349 6.7632C66.1301 6.7632 65.341 7.05267 64.8412 7.57899C64.3151 8.13162 64.0784 8.84214 64.0784 9.63162C64.131 10.5264 65.0779 11.4474 66.9193 12.4474C68.6817 13.3948 70.0232 14.2369 70.9965 14.9474C72.4433 16.079 73.2061 17.5527 73.3376 19.3685C73.3376 20.9211 72.7852 22.2106 71.6804 23.2106C70.5493 24.2106 68.8658 24.7106 66.6562 24.7106C64.0784 24.7106 62.1055 23.9737 60.7903 22.5V17.7632H62.1318C62.4738 20.1579 62.9999 21.6842 63.7627 22.3685C64.4992 23.0527 65.3936 23.3685 66.4984 23.3685C67.8136 23.3685 68.7869 23.079 69.3919 22.5527C69.9706 22.0264 70.2863 21.1579 70.3126 19.9474C70.2337 18.4474 69.2078 17.1842 67.2612 16.079C65.3147 15.0264 63.9468 14.2106 63.1051 13.6053Z" fill="white"/>
<path d="M80.8607 15.1316C80.8607 17.6053 81.3868 19.579 82.4389 21.079C83.4911 22.5527 84.8064 23.2895 86.411 23.2895C88.1208 23.2632 89.4623 22.7895 90.4619 21.7895C91.4615 20.7895 92.0402 19.8421 92.2243 18.9211H93.0398C92.7767 20.3158 92.0402 21.6316 90.8828 22.8421C89.7517 24 88.0419 24.6053 85.806 24.6579C83.3859 24.6579 81.3868 23.8421 79.8611 22.1842C78.2828 20.4474 77.4937 18.079 77.4937 15.1316C77.4937 12.1316 78.3091 9.7632 79.9663 8.05267C81.6235 6.28951 83.649 5.39478 86.069 5.39478C87.5421 5.39478 88.6732 5.65793 89.4623 6.18425C89.778 6.39478 90.041 6.50004 90.2251 6.50004C90.5671 6.50004 90.7249 6.21056 90.7249 5.63162H91.9086V11.8421H90.7775C90.5671 10.2632 90.1462 9.00004 89.5149 8.05267C88.8836 7.13162 87.8314 6.65793 86.3583 6.65793C84.9116 6.65793 83.6227 7.44741 82.5179 9.05267C81.4131 10.6053 80.8607 12.6316 80.8607 15.1316ZM98.7216 17.1053H104.219L101.484 8.84214L98.7216 17.1053ZM98.1692 18.5264L97.2485 21.0527C97.1433 21.4211 97.0907 21.7369 97.0907 22.0264C97.0907 23.0264 97.6957 23.5264 98.932 23.579V24.4737H93.4343V23.6053C93.9867 23.579 94.5391 22.8685 95.1441 21.4737L101.168 5.57899H102.904L108.954 21.4737C109.533 22.8685 110.112 23.579 110.664 23.6053V24.4737H103.851V23.6053C105.166 23.6053 105.824 23.079 105.824 22.0527C105.824 21.7895 105.771 21.4737 105.666 21.079L104.851 18.5527H98.1692V18.5264ZM115.846 16.0527V20.7632C115.846 22.6053 116.53 23.5527 117.898 23.579V24.4737H111.137V23.6053C112.453 23.579 113.11 23.0527 113.11 22.079V7.94741C113.11 6.97372 112.453 6.47372 111.137 6.42109V5.55267H117.477C122.659 5.57899 125.237 7.31583 125.237 10.7895C125.21 14.2632 122.633 16 117.477 16.0264H115.846V16.0527ZM115.846 6.71056V13.7895C115.846 14.5527 116.267 14.9211 117.135 14.9211H117.661C120.607 14.8158 122.08 13.4474 122.08 10.7895C122.08 8.13162 120.607 6.7632 117.661 6.68425H115.846V6.71056ZM130.945 22.079C130.945 23.0527 131.629 23.5527 132.997 23.6053V24.4737H126.236V23.6053C127.552 23.579 128.209 23.0527 128.209 22.079V7.94741C128.209 6.97372 127.552 6.47372 126.236 6.42109V5.55267H132.997V6.42109C131.629 6.44741 130.945 6.97372 130.945 7.94741V22.079ZM148.069 5.55267V10.5527H146.859C146.859 8.18425 146.07 6.97372 144.466 6.97372H142.493V22.0527C142.493 23.0527 143.15 23.5527 144.439 23.579V24.4737H137.784V23.6053C139.073 23.579 139.731 23.079 139.731 22.079V7.00004H137.758C136.153 7.00004 135.364 8.18425 135.364 10.579H134.154V5.57899H148.069V5.55267ZM153.672 17.1053H159.17L156.434 8.84214L153.672 17.1053ZM153.093 18.5264L152.173 21.0527C152.068 21.4211 152.015 21.7369 152.015 22.0264C152.015 23.0264 152.62 23.5264 153.856 23.579V24.4737H148.359V23.6053C148.911 23.579 149.463 22.8685 150.068 21.4737L156.092 5.57899H157.828L163.878 21.4737C164.457 22.8685 165.036 23.579 165.588 23.6053V24.4737H158.775V23.6053C160.091 23.6053 160.748 23.079 160.748 22.0527C160.748 21.7895 160.696 21.4737 160.59 21.079L159.775 18.5527H153.093V18.5264ZM174.321 23.0264C176.741 23.0264 177.925 21.8685 177.925 19.5527H179.161V24.4737H166.483V23.6053C167.772 23.579 168.429 23.079 168.429 22.079V7.94741C168.429 6.94741 167.772 6.44741 166.483 6.42109V5.55267H173.243V6.42109C171.849 6.44741 171.165 6.94741 171.165 7.94741V21.9737C171.165 22.6579 171.691 23 172.769 23H174.321V23.0264Z" fill="#680707"/>
<path d="M180.898 27.6052H76.7834V26.2105H180.898V27.6052Z" fill="black"/>
<path d="M44.5601 37.1053C44.5601 37.3421 44.5075 37.579 44.4023 37.7632C44.2971 37.9474 44.1655 38.1316 44.0077 38.2632C43.8236 38.3947 43.6395 38.5 43.4027 38.579C43.166 38.6579 42.9292 38.6842 42.6399 38.6842C42.4557 38.6842 42.2716 38.6579 42.1138 38.6316C41.9559 38.6053 41.7981 38.5526 41.6929 38.5263C41.5614 38.4737 41.4562 38.4474 41.3772 38.3947C41.2983 38.3421 41.2194 38.3158 41.1931 38.2632C41.1668 38.2368 41.1405 38.1842 41.1142 38.1316C41.0879 38.0789 41.0879 38.0263 41.0879 37.9211C41.0879 37.8684 41.0879 37.8158 41.0879 37.7632C41.0879 37.7368 41.1142 37.6842 41.1142 37.6579C41.1142 37.6316 41.1405 37.6053 41.1668 37.6053C41.1931 37.6053 41.1931 37.579 41.2194 37.579C41.272 37.579 41.3246 37.6053 41.4035 37.6579C41.4825 37.7105 41.5614 37.7632 41.6929 37.8158C41.7981 37.8684 41.9559 37.9211 42.1138 37.9737C42.2716 38.0263 42.4557 38.0526 42.6925 38.0526C42.8503 38.0526 43.0081 38.0263 43.1397 38C43.2712 37.9474 43.4027 37.8947 43.4816 37.8158C43.5868 37.7368 43.6658 37.6579 43.7184 37.5263C43.771 37.4211 43.7973 37.2895 43.7973 37.1579C43.7973 37 43.771 36.8684 43.6921 36.7632C43.6131 36.6579 43.5342 36.5526 43.4027 36.4737C43.2712 36.3947 43.1397 36.3158 43.0081 36.2632C42.8503 36.1842 42.6925 36.1316 42.5347 36.0526C42.3768 35.9737 42.219 35.8947 42.0612 35.8158C41.9033 35.7368 41.7718 35.6316 41.6666 35.5263C41.5351 35.4211 41.4562 35.2632 41.3772 35.1316C41.2983 34.9737 41.272 34.7895 41.272 34.5789C41.272 34.3421 41.3246 34.1579 41.4035 33.9737C41.4825 33.7895 41.614 33.6579 41.7718 33.5263C41.9296 33.4211 42.1138 33.3158 42.3242 33.2632C42.5347 33.2105 42.7714 33.1579 43.0081 33.1579C43.1397 33.1579 43.2449 33.1579 43.3764 33.1842C43.5079 33.2105 43.6131 33.2368 43.7447 33.2632C43.8499 33.2895 43.9551 33.3421 44.034 33.3684C44.1129 33.4211 44.1655 33.4474 44.1919 33.4737C44.2182 33.5 44.2445 33.5263 44.2445 33.5263C44.2445 33.5526 44.2708 33.5526 44.2708 33.579C44.2708 33.6053 44.2708 33.6316 44.2971 33.6579C44.2971 33.6842 44.2971 33.7368 44.2971 33.7895C44.2971 33.8421 44.2971 33.8947 44.2971 33.9211C44.2971 33.9474 44.2971 34 44.2708 34.0263C44.2708 34.0526 44.2445 34.079 44.2445 34.079C44.2182 34.079 44.2182 34.1053 44.1919 34.1053C44.1655 34.1053 44.1129 34.0789 44.034 34.0526C43.9551 34.0263 43.8762 33.9737 43.771 33.9211C43.6658 33.8684 43.5605 33.8421 43.429 33.7895C43.2975 33.7368 43.1397 33.7368 42.9818 33.7368C42.824 33.7368 42.6925 33.7632 42.561 33.7895C42.4557 33.8421 42.3505 33.8947 42.2716 33.9474C42.1927 34.0263 42.1401 34.0789 42.1138 34.1842C42.0875 34.2632 42.0612 34.3684 42.0612 34.4737C42.0612 34.6316 42.0875 34.7368 42.1664 34.8684C42.2453 34.9737 42.3242 35.079 42.4557 35.1579C42.5873 35.2368 42.7188 35.3158 42.8766 35.3947C43.0344 35.4737 43.1923 35.5263 43.3501 35.6053C43.5079 35.6842 43.6658 35.7632 43.8236 35.8421C43.9814 35.9211 44.1129 36.0263 44.2445 36.1316C44.376 36.2368 44.4549 36.3684 44.5338 36.5263C44.5075 36.7105 44.5601 36.8947 44.5601 37.1053ZM49.7685 38.3158C49.7685 38.3684 49.7685 38.4211 49.7685 38.4474C49.7685 38.4737 49.7422 38.5263 49.7422 38.5526C49.7158 38.5789 49.7158 38.6053 49.6895 38.6053C49.6632 38.6053 49.6369 38.6316 49.6369 38.6316H46.9275C46.8486 38.6316 46.796 38.6053 46.7434 38.579C46.6908 38.5263 46.6645 38.4737 46.6645 38.3421V33.579C46.6645 33.4737 46.6908 33.3947 46.7434 33.3421C46.796 33.2895 46.8749 33.2895 46.9275 33.2895H49.6106C49.6369 33.2895 49.6632 33.2895 49.6632 33.3158C49.6895 33.3158 49.6895 33.3421 49.7158 33.3684C49.7158 33.3947 49.7422 33.4211 49.7422 33.4737C49.7422 33.5 49.7422 33.5526 49.7422 33.6053C49.7422 33.6579 49.7422 33.7105 49.7422 33.7368C49.7422 33.7632 49.7158 33.8158 49.7158 33.8158C49.7158 33.8421 49.6895 33.8684 49.6632 33.8684C49.6369 33.8684 49.6106 33.8947 49.6106 33.8947H47.401V35.5789H49.295C49.3213 35.5789 49.3476 35.579 49.3476 35.6053C49.3739 35.6053 49.3739 35.6316 49.4002 35.6579C49.4265 35.6842 49.4265 35.7105 49.4265 35.7368C49.4265 35.7895 49.4265 35.8158 49.4265 35.8684C49.4265 35.9211 49.4265 35.9737 49.4265 36C49.4265 36.0263 49.4002 36.0526 49.4002 36.079C49.3739 36.1053 49.3739 36.1053 49.3476 36.1316C49.3213 36.1316 49.295 36.1579 49.295 36.1579H47.401V38.0789H49.6369C49.6632 38.0789 49.6895 38.079 49.6895 38.1053C49.7158 38.1053 49.7158 38.1316 49.7422 38.1579C49.7685 38.1842 49.7685 38.2105 49.7685 38.2368C49.7685 38.2105 49.7685 38.2632 49.7685 38.3158ZM55.7396 38.5C55.7396 38.5263 55.7396 38.5526 55.7133 38.5526C55.7133 38.5789 55.687 38.5789 55.6607 38.6053C55.6344 38.6053 55.5818 38.6316 55.5292 38.6316C55.4766 38.6316 55.3977 38.6316 55.3188 38.6316C55.2398 38.6316 55.1872 38.6316 55.1346 38.6316C55.082 38.6316 55.0557 38.6053 55.0294 38.6053C55.0031 38.6053 54.9768 38.5789 54.9505 38.5526C54.9242 38.5263 54.9242 38.5 54.8979 38.4737L54.3718 37.2105C54.3192 37.0789 54.2403 36.9474 54.1877 36.8158C54.135 36.6842 54.0561 36.6053 53.9509 36.5C53.872 36.4211 53.7668 36.3421 53.6353 36.2895C53.5037 36.2368 53.3722 36.2105 53.1881 36.2105H52.6883V38.5C52.6883 38.5263 52.6883 38.5526 52.662 38.5526C52.6357 38.5789 52.6357 38.579 52.6094 38.579C52.5831 38.579 52.5568 38.6053 52.5042 38.6053C52.4515 38.6053 52.3989 38.6053 52.32 38.6053C52.2411 38.6053 52.1885 38.6053 52.1359 38.6053C52.0833 38.6053 52.057 38.579 52.0307 38.579C52.0044 38.579 51.9781 38.5526 51.9781 38.5526C51.9781 38.5263 51.9518 38.5263 51.9518 38.5V33.5526C51.9518 33.4474 51.9781 33.3684 52.0307 33.3158C52.0833 33.2632 52.1622 33.2632 52.2148 33.2632H53.4248C53.5563 33.2632 53.6879 33.2632 53.7931 33.2632C53.8983 33.2632 53.9772 33.2895 54.0561 33.2895C54.2666 33.3158 54.477 33.3947 54.6348 33.4474C54.7927 33.5263 54.9505 33.6316 55.0557 33.7368C55.1609 33.8684 55.2662 34 55.3188 34.1316C55.3714 34.2895 55.3977 34.4474 55.3977 34.6316C55.3977 34.8158 55.3714 34.9737 55.3188 35.1053C55.2662 35.2368 55.1872 35.3684 55.1083 35.4737C55.0031 35.579 54.8979 35.6842 54.7664 35.7632C54.6348 35.8421 54.477 35.9211 54.3192 35.9737C54.4244 36.0263 54.5033 36.0526 54.5822 36.1316C54.6611 36.1842 54.7401 36.2632 54.7927 36.3421C54.8453 36.4211 54.9242 36.5263 54.9768 36.6316C55.0294 36.7368 55.082 36.8684 55.1609 37L55.6607 38.1842C55.7133 38.2895 55.7396 38.3421 55.7396 38.3947C55.7396 38.4474 55.7396 38.4737 55.7396 38.5ZM54.6085 34.7368C54.6085 34.5263 54.5559 34.3421 54.4507 34.2105C54.3455 34.079 54.1877 33.9737 53.9509 33.8947C53.872 33.8684 53.7931 33.8684 53.7142 33.8421C53.6353 33.8421 53.5037 33.8421 53.3459 33.8421H52.7146V35.6316H53.4511C53.6616 35.6316 53.8194 35.6053 53.9509 35.5526C54.0824 35.5 54.214 35.4474 54.3192 35.3684C54.4244 35.2895 54.477 35.1842 54.5296 35.079C54.6085 35 54.6085 34.8684 54.6085 34.7368ZM60.001 38.4737C60.001 38.5 59.9747 38.5263 59.9484 38.5526C59.9221 38.5789 59.8958 38.5789 59.8695 38.6053C59.8432 38.6053 59.7906 38.6316 59.738 38.6316C59.6853 38.6316 59.6064 38.6316 59.5275 38.6316C59.4749 38.6316 59.396 38.6316 59.3697 38.6316C59.3171 38.6316 59.2908 38.6316 59.2382 38.6316C59.2119 38.6316 59.1856 38.6316 59.1593 38.6053C59.1329 38.6053 59.1066 38.579 59.1066 38.579C59.0803 38.579 59.0803 38.5526 59.054 38.5526C59.054 38.5263 59.0277 38.5263 59.0277 38.5L57.1864 33.5263C57.1601 33.4737 57.1601 33.4211 57.1601 33.3684C57.1601 33.3421 57.1601 33.3158 57.1864 33.2895C57.2127 33.2632 57.2653 33.2632 57.3179 33.2632C57.3705 33.2632 57.4494 33.2632 57.5547 33.2632C57.6336 33.2632 57.7125 33.2632 57.7388 33.2632C57.7914 33.2632 57.8177 33.2632 57.844 33.2895C57.8703 33.2895 57.8966 33.3158 57.8966 33.3421C57.9229 33.3684 57.9229 33.3947 57.9229 33.4211L59.5275 37.9211L61.1058 33.4211C61.1058 33.3947 61.1321 33.3684 61.1321 33.3421C61.1321 33.3158 61.1584 33.3158 61.1847 33.2895C61.211 33.2895 61.2636 33.2632 61.3162 33.2632C61.3689 33.2632 61.4478 33.2632 61.5267 33.2632C61.6056 33.2632 61.6845 33.2632 61.7371 33.2632C61.7897 33.2632 61.816 33.2895 61.8423 33.3158C61.8686 33.3421 61.8686 33.3684 61.8686 33.3947C61.8686 33.4211 61.8423 33.4737 61.816 33.5526L60.001 38.4737ZM64.5254 38.5C64.5254 38.5263 64.5254 38.5526 64.4991 38.5526C64.4991 38.5789 64.4728 38.579 64.4465 38.579C64.4202 38.579 64.3676 38.6053 64.3413 38.6053C64.2887 38.6053 64.2361 38.6053 64.1572 38.6053C64.0782 38.6053 64.0256 38.6053 63.973 38.6053C63.9204 38.6053 63.8941 38.579 63.8678 38.579C63.8415 38.579 63.8152 38.5526 63.8152 38.5526C63.8152 38.5263 63.7889 38.5263 63.7889 38.5V33.3684C63.7889 33.3421 63.7889 33.3158 63.8152 33.3158C63.8415 33.2895 63.8415 33.2895 63.8678 33.2632C63.8941 33.2632 63.9467 33.2368 63.973 33.2368C64.0256 33.2368 64.0782 33.2368 64.1572 33.2368C64.2361 33.2368 64.2887 33.2368 64.3413 33.2368C64.3939 33.2368 64.4202 33.2632 64.4465 33.2632C64.4728 33.2632 64.4991 33.2895 64.4991 33.3158C64.4991 33.3421 64.5254 33.3421 64.5254 33.3684V38.5ZM69.497 38.9211C69.5496 39.0526 69.6022 39.1579 69.6285 39.2368C69.6548 39.3158 69.6811 39.3947 69.6811 39.4737C69.6811 39.5789 69.6548 39.6842 69.6285 39.7632C69.5759 39.8421 69.5233 39.9211 69.4444 39.9737C69.3655 40.0263 69.2866 40.0789 69.1814 40.1053C69.0761 40.1316 68.9709 40.1579 68.8394 40.1579C68.7342 40.1579 68.629 40.1579 68.55 40.1316C68.4711 40.1316 68.3922 40.1053 68.3133 40.079C68.2344 40.0526 68.2081 40.0526 68.1818 40.0526C68.1555 40.0526 68.1292 40.0263 68.1292 40C68.1292 39.9737 68.1029 39.9737 68.1029 39.9474C68.1029 39.9211 68.1029 39.8947 68.1029 39.8421C68.1029 39.7632 68.1029 39.7105 68.1292 39.6579C68.1555 39.6316 68.1818 39.6053 68.2344 39.6053H68.7605C68.8657 39.6053 68.9183 39.579 68.9709 39.5526C69.0235 39.5263 69.0498 39.4474 69.0498 39.3947C69.0498 39.3684 69.0498 39.3158 69.0235 39.2632C68.9972 39.2105 68.9709 39.1579 68.9446 39.1053L68.7342 38.6842C68.4711 38.6579 68.2081 38.5789 67.9713 38.4737C67.7346 38.3684 67.5242 38.2105 67.3137 38C67.1296 37.7895 66.9718 37.5263 66.8402 37.1842C66.735 36.8421 66.6824 36.4737 66.6824 36.0263C66.6824 35.5789 66.735 35.1842 66.8665 34.8421C66.9981 34.5 67.1559 34.2105 67.3663 33.9737C67.5768 33.7368 67.8398 33.5526 68.1555 33.4211C68.4711 33.2895 68.7868 33.2368 69.1551 33.2368C69.3129 33.2368 69.4707 33.2632 69.6285 33.2895C69.7864 33.3158 69.9179 33.3421 70.0494 33.3947C70.1809 33.4474 70.2862 33.5 70.3914 33.5526C70.4966 33.6053 70.5755 33.6579 70.6018 33.6842C70.6544 33.7105 70.6544 33.7368 70.6807 33.7632C70.6807 33.7895 70.707 33.8158 70.707 33.8421C70.707 33.8684 70.7333 33.8947 70.7333 33.9474C70.7333 33.9737 70.7333 34.0263 70.7333 34.079C70.7333 34.1316 70.7333 34.1842 70.7333 34.2105C70.7333 34.2368 70.707 34.2895 70.707 34.3158C70.707 34.3421 70.6807 34.3684 70.6544 34.3684C70.6281 34.3684 70.6281 34.3947 70.6018 34.3947C70.5492 34.3947 70.4966 34.3684 70.444 34.3158C70.3651 34.2632 70.2862 34.2105 70.1546 34.1316C70.0494 34.0789 69.8916 34 69.7338 33.9474C69.5759 33.8947 69.3655 33.8684 69.1551 33.8684C68.892 33.8684 68.6816 33.9211 68.4711 34C68.2607 34.1053 68.1029 34.2368 67.945 34.4211C67.7872 34.6053 67.682 34.8421 67.6031 35.1053C67.5242 35.3684 67.4716 35.6842 67.4716 36.0263C67.4716 36.3684 67.4979 36.6579 67.5768 36.9211C67.6557 37.1842 67.7609 37.3947 67.9187 37.579C68.0503 37.7632 68.2344 37.8947 68.4448 37.9737C68.6553 38.0526 68.892 38.1053 69.1551 38.1053C69.3655 38.1053 69.5496 38.079 69.7338 38.0263C69.8916 37.9737 70.0494 37.9211 70.1809 37.8421C70.3125 37.7895 70.3914 37.7105 70.4703 37.6579C70.5492 37.6053 70.6018 37.579 70.6544 37.579C70.6807 37.579 70.6807 37.579 70.707 37.579C70.7333 37.579 70.7333 37.6053 70.7333 37.6316C70.7333 37.6579 70.7596 37.6842 70.7596 37.7368C70.7596 37.7895 70.7596 37.8421 70.7596 37.8947C70.7596 37.9474 70.7596 37.9737 70.7596 38C70.7596 38.0263 70.7596 38.0526 70.7333 38.0789C70.7333 38.1053 70.707 38.1316 70.707 38.1579C70.707 38.1842 70.6807 38.2105 70.6544 38.2368C70.6281 38.2632 70.5755 38.3158 70.4703 38.3684C70.3651 38.4211 70.2599 38.4737 70.1283 38.5263C69.9968 38.5789 69.8653 38.6316 69.7338 38.6579C69.6022 38.6842 69.4707 38.7105 69.3392 38.7105L69.497 38.9211ZM77.441 35.8684C77.441 36.2895 77.3884 36.6842 77.2832 37.0263C77.178 37.3684 77.0202 37.6579 76.8097 37.9211C76.5993 38.1579 76.3363 38.3421 75.9943 38.4737C75.6786 38.6053 75.2841 38.6579 74.8632 38.6579C74.4423 38.6579 74.074 38.6053 73.7584 38.4737C73.4427 38.3421 73.206 38.1842 72.9955 37.9474C72.7851 37.7105 72.6536 37.4474 72.5484 37.1053C72.4431 36.7632 72.3905 36.3684 72.3905 35.9474C72.3905 35.5263 72.4431 35.1316 72.5484 34.7895C72.6536 34.4474 72.8114 34.1579 73.0219 33.9211C73.2323 33.6842 73.4953 33.5 73.8373 33.3684C74.153 33.2368 74.5212 33.1842 74.9684 33.1842C75.3893 33.1842 75.7312 33.2368 76.0469 33.3684C76.3626 33.4737 76.5993 33.6579 76.8097 33.8947C77.0202 34.1316 77.178 34.3947 77.2569 34.7368C77.3884 35.0526 77.441 35.4474 77.441 35.8684ZM76.6519 35.9211C76.6519 35.6316 76.6256 35.3421 76.573 35.079C76.5204 34.8158 76.4152 34.6053 76.2836 34.3947C76.1521 34.2105 75.968 34.0526 75.7575 33.9474C75.5471 33.8421 75.2578 33.7895 74.9421 33.7895C74.6264 33.7895 74.3371 33.8421 74.1266 33.9737C73.9162 34.079 73.7321 34.2368 73.6006 34.4474C73.469 34.6316 73.3638 34.8684 73.3112 35.1316C73.2586 35.3947 73.2323 35.6579 73.2323 35.9474C73.2323 36.2632 73.2586 36.5526 73.3112 36.8158C73.3638 37.0789 73.469 37.3158 73.6006 37.5C73.7321 37.6842 73.9162 37.8421 74.1266 37.9474C74.3371 38.0526 74.6264 38.1053 74.9421 38.1053C75.2578 38.1053 75.5471 38.0526 75.7575 37.9211C75.968 37.8158 76.1521 37.6579 76.3099 37.4474C76.4415 37.2632 76.5467 37.0263 76.5993 36.7632C76.6256 36.4737 76.6519 36.2105 76.6519 35.9211ZM82.6757 37.1053C82.6757 37.3421 82.6231 37.579 82.5179 37.7632C82.4127 37.9474 82.2811 38.1316 82.1233 38.2632C81.9392 38.3947 81.755 38.5 81.5183 38.579C81.2815 38.6579 81.0448 38.6842 80.7554 38.6842C80.5713 38.6842 80.3872 38.6579 80.2294 38.6316C80.0715 38.6053 79.9137 38.5526 79.8085 38.5263C79.677 38.4737 79.5717 38.4474 79.4928 38.3947C79.4139 38.3421 79.335 38.3158 79.3087 38.2632C79.2824 38.2368 79.2561 38.1842 79.2298 38.1316C79.2035 38.0789 79.2035 38.0263 79.2035 37.9211C79.2035 37.8684 79.2035 37.8158 79.2035 37.7632C79.2035 37.7368 79.2298 37.6842 79.2298 37.6579C79.2298 37.6316 79.2561 37.6053 79.2824 37.6053C79.3087 37.6053 79.3087 37.579 79.335 37.579C79.3876 37.579 79.4402 37.6053 79.5191 37.6579C79.598 37.7105 79.677 37.7632 79.8085 37.8158C79.9137 37.8684 80.0715 37.9211 80.2294 37.9737C80.3872 38.0263 80.5713 38.0526 80.8081 38.0526C80.9659 38.0526 81.1237 38.0263 81.2552 38C81.3868 37.9474 81.5183 37.8947 81.5972 37.8158C81.7024 37.7368 81.7813 37.6579 81.8339 37.5263C81.8866 37.4211 81.9129 37.2895 81.9129 37.1579C81.9129 37 81.8866 36.8684 81.8076 36.7632C81.7287 36.6579 81.6498 36.5526 81.5183 36.4737C81.3868 36.3947 81.2552 36.3158 81.1237 36.2632C80.9659 36.1842 80.8081 36.1316 80.6502 36.0526C80.4924 35.9737 80.3346 35.8947 80.1767 35.8158C80.0189 35.7368 79.8874 35.6316 79.7822 35.5263C79.6506 35.4211 79.5717 35.2632 79.4928 35.1316C79.4139 34.9737 79.3876 34.7895 79.3876 34.5789C79.3876 34.3421 79.4402 34.1579 79.5191 33.9737C79.598 33.7895 79.7296 33.6579 79.8874 33.5263C80.0452 33.4211 80.2294 33.3158 80.4398 33.2632C80.6502 33.2105 80.887 33.1579 81.1237 33.1579C81.2552 33.1579 81.3605 33.1579 81.492 33.1842C81.6235 33.2105 81.7287 33.2368 81.8602 33.2632C81.9655 33.2895 82.0707 33.3421 82.1496 33.3684C82.2285 33.4211 82.2811 33.4474 82.3337 33.4737C82.36 33.5 82.3863 33.5263 82.3863 33.5263C82.3863 33.5526 82.4126 33.5526 82.4126 33.579C82.4126 33.6053 82.4126 33.6316 82.4389 33.6579C82.4389 33.6842 82.4389 33.7368 82.4389 33.7895C82.4389 33.8421 82.4389 33.8947 82.4389 33.9211C82.4389 33.9474 82.4389 34 82.4126 34.0263C82.4126 34.0526 82.3863 34.079 82.3863 34.079C82.36 34.079 82.36 34.1053 82.3337 34.1053C82.3074 34.1053 82.2548 34.0789 82.1759 34.0526C82.097 34.0263 82.0181 33.9737 81.9129 33.9211C81.8076 33.8684 81.7024 33.8421 81.5709 33.7895C81.4394 33.7368 81.2815 33.7368 81.1237 33.7368C80.9659 33.7368 80.8344 33.7632 80.7028 33.7895C80.5976 33.8421 80.4924 33.8947 80.4135 33.9474C80.3346 34.0263 80.282 34.0789 80.2557 34.1842C80.2294 34.2632 80.203 34.3684 80.203 34.4737C80.203 34.6316 80.2294 34.7368 80.3083 34.8684C80.3872 34.9737 80.4661 35.079 80.5976 35.1579C80.7291 35.2368 80.8607 35.3158 81.0185 35.3947C81.1763 35.4737 81.3341 35.5263 81.492 35.6053C81.6498 35.6842 81.8076 35.7632 81.9655 35.8421C82.1233 35.9211 82.2548 36.0263 82.3863 36.1316C82.5179 36.2368 82.5968 36.3684 82.6757 36.5263C82.6231 36.7105 82.6757 36.8947 82.6757 37.1053ZM91.7245 33.579C91.7245 33.6316 91.7245 33.6842 91.7245 33.7105C91.7245 33.7368 91.6982 33.7895 91.6982 33.8158C91.6719 33.8421 91.6719 33.8684 91.6456 33.8684C91.6193 33.8684 91.6193 33.8947 91.593 33.8947H89.5412V35.7105H91.4878C91.5141 35.7105 91.5404 35.7105 91.5404 35.7368C91.5667 35.7368 91.5667 35.7632 91.593 35.7895C91.6193 35.8158 91.6193 35.8421 91.6193 35.8684C91.6193 35.8947 91.6193 35.9474 91.6193 36C91.6193 36.0526 91.6193 36.1053 91.6193 36.1316C91.6193 36.1579 91.593 36.2105 91.593 36.2105C91.5667 36.2368 91.5667 36.2632 91.5404 36.2632C91.5141 36.2632 91.5141 36.2895 91.4878 36.2895H89.5412V38.5263C89.5412 38.5526 89.5412 38.5526 89.5149 38.579C89.5149 38.6053 89.4886 38.6053 89.4623 38.6316C89.436 38.6316 89.3834 38.6579 89.3571 38.6579C89.3045 38.6579 89.2519 38.6579 89.173 38.6579C89.0941 38.6579 89.0414 38.6579 88.9888 38.6579C88.9362 38.6579 88.9099 38.6316 88.8836 38.6316C88.8573 38.6316 88.831 38.6053 88.831 38.579C88.831 38.5526 88.8047 38.5526 88.8047 38.5263V33.579C88.8047 33.4737 88.831 33.3947 88.8836 33.3421C88.9362 33.2895 89.0151 33.2895 89.0677 33.2895H91.593C91.6193 33.2895 91.6456 33.2895 91.6456 33.3158C91.6719 33.3158 91.6719 33.3421 91.6982 33.3684C91.7245 33.3947 91.7245 33.4211 91.7245 33.4737C91.7245 33.4737 91.7245 33.5263 91.7245 33.579ZM94.6181 38.5C94.6181 38.5263 94.618 38.5526 94.5917 38.5526C94.5917 38.5789 94.5654 38.579 94.5391 38.579C94.5128 38.579 94.4602 38.6053 94.4339 38.6053C94.3813 38.6053 94.3287 38.6053 94.2498 38.6053C94.1709 38.6053 94.1183 38.6053 94.0657 38.6053C94.013 38.6053 93.9867 38.579 93.9604 38.579C93.9341 38.579 93.9078 38.5526 93.9078 38.5526C93.9078 38.5263 93.8815 38.5263 93.8815 38.5V33.3684C93.8815 33.3421 93.8815 33.3158 93.9078 33.3158C93.9341 33.2895 93.9341 33.2895 93.9604 33.2632C93.9867 33.2632 94.0393 33.2368 94.0657 33.2368C94.1183 33.2368 94.1709 33.2368 94.2498 33.2368C94.3287 33.2368 94.3813 33.2368 94.4339 33.2368C94.4865 33.2368 94.5128 33.2632 94.5391 33.2632C94.5654 33.2632 94.5917 33.2895 94.5917 33.3158C94.5917 33.3421 94.6181 33.3421 94.6181 33.3684V38.5ZM101.405 38.3158C101.405 38.3684 101.405 38.4211 101.378 38.4474C101.352 38.4737 101.326 38.5263 101.299 38.5526C101.273 38.5789 101.221 38.6053 101.194 38.6053C101.142 38.6053 101.115 38.6316 101.089 38.6316H100.852C100.773 38.6316 100.694 38.6316 100.642 38.6053C100.589 38.5789 100.537 38.5526 100.484 38.5263C100.431 38.5 100.379 38.4211 100.326 38.3684C100.274 38.2895 100.221 38.2105 100.168 38.1053L98.4585 35.079C98.3796 34.9211 98.2744 34.7632 98.1955 34.5789C98.0903 34.3947 98.0114 34.2368 97.9324 34.079C97.9324 34.2632 97.9324 34.4737 97.9588 34.6842C97.9588 34.8947 97.9588 35.1053 97.9588 35.2895V38.5263C97.9588 38.5526 97.9587 38.5526 97.9324 38.579C97.9061 38.6053 97.9061 38.6053 97.8798 38.6316C97.8535 38.6316 97.8009 38.6579 97.7746 38.6579C97.722 38.6579 97.6694 38.6579 97.5905 38.6579C97.5116 38.6579 97.459 38.6579 97.4063 38.6579C97.3537 38.6579 97.3274 38.6316 97.3011 38.6316C97.2748 38.6316 97.2485 38.6053 97.2485 38.579C97.2485 38.5526 97.2222 38.5526 97.2222 38.5263V33.6053C97.2222 33.5 97.2485 33.4211 97.3274 33.3684C97.38 33.3158 97.459 33.2895 97.5379 33.2895H97.9061C97.9851 33.2895 98.064 33.2895 98.1166 33.3158C98.1692 33.3158 98.2218 33.3421 98.2744 33.3947C98.327 33.4211 98.3533 33.4737 98.4059 33.5263C98.4585 33.579 98.4848 33.6579 98.5375 33.7368L99.8527 36.079C99.9316 36.2105 100.011 36.3684 100.089 36.5C100.168 36.6316 100.247 36.7632 100.3 36.8947C100.379 37.0263 100.431 37.1579 100.51 37.2895C100.589 37.4211 100.642 37.5526 100.721 37.6842C100.721 37.4737 100.721 37.2368 100.721 37C100.721 36.7632 100.721 36.5263 100.721 36.3158V33.4211C100.721 33.3947 100.721 33.3947 100.747 33.3684C100.773 33.3421 100.773 33.3421 100.8 33.3158C100.826 33.3158 100.879 33.2895 100.905 33.2895C100.957 33.2895 101.01 33.2895 101.089 33.2895C101.168 33.2895 101.221 33.2895 101.273 33.2895C101.326 33.2895 101.352 33.3158 101.378 33.3158C101.405 33.3158 101.431 33.3421 101.431 33.3684C101.431 33.3947 101.457 33.3947 101.457 33.4211V38.3158H101.405ZM108.112 38.3684C108.139 38.4211 108.139 38.4737 108.139 38.5263C108.139 38.5526 108.139 38.5789 108.112 38.6053C108.086 38.6316 108.06 38.6316 108.007 38.6316C107.955 38.6316 107.876 38.6316 107.797 38.6316C107.718 38.6316 107.639 38.6316 107.586 38.6316C107.534 38.6316 107.481 38.6316 107.455 38.6053C107.428 38.6053 107.402 38.579 107.402 38.579C107.376 38.5526 107.376 38.5526 107.376 38.5263L106.902 37.2368H104.561L104.088 38.5263C104.088 38.5526 104.061 38.579 104.061 38.579C104.035 38.6053 104.035 38.6053 104.009 38.6316C103.983 38.6316 103.93 38.6579 103.904 38.6579C103.851 38.6579 103.798 38.6579 103.693 38.6579C103.614 38.6579 103.535 38.6579 103.483 38.6579C103.43 38.6579 103.404 38.6316 103.378 38.6316C103.351 38.6053 103.351 38.5789 103.351 38.5526C103.351 38.5263 103.378 38.4737 103.378 38.3947L105.271 33.4211C105.271 33.3947 105.298 33.3684 105.324 33.3421C105.35 33.3158 105.377 33.3158 105.403 33.2895C105.429 33.2895 105.482 33.2632 105.535 33.2632C105.587 33.2632 105.666 33.2632 105.745 33.2632C105.85 33.2632 105.903 33.2632 105.982 33.2632C106.034 33.2632 106.087 33.2632 106.14 33.2895C106.166 33.2895 106.218 33.3158 106.218 33.3421C106.245 33.3684 106.245 33.3947 106.271 33.4211L108.112 38.3684ZM105.692 33.9737L104.719 36.6316H106.666L105.692 33.9737ZM114.32 38.3158C114.32 38.3684 114.32 38.4211 114.294 38.4474C114.268 38.4737 114.241 38.5263 114.215 38.5526C114.189 38.5789 114.136 38.6053 114.11 38.6053C114.057 38.6053 114.031 38.6316 114.005 38.6316H113.768C113.689 38.6316 113.61 38.6316 113.557 38.6053C113.505 38.5789 113.452 38.5526 113.4 38.5263C113.347 38.5 113.294 38.4211 113.242 38.3684C113.189 38.2895 113.137 38.2105 113.084 38.1053L111.374 35.079C111.295 34.9211 111.19 34.7632 111.111 34.5789C111.006 34.3947 110.927 34.2368 110.848 34.079C110.848 34.2632 110.848 34.4737 110.874 34.6842C110.874 34.8947 110.874 35.1053 110.874 35.2895V38.5263C110.874 38.5526 110.874 38.5526 110.848 38.579C110.822 38.6053 110.822 38.6053 110.795 38.6316C110.769 38.6316 110.717 38.6579 110.69 38.6579C110.638 38.6579 110.585 38.6579 110.506 38.6579C110.427 38.6579 110.375 38.6579 110.322 38.6579C110.269 38.6579 110.243 38.6316 110.217 38.6316C110.19 38.6316 110.164 38.6053 110.164 38.579C110.164 38.5526 110.138 38.5526 110.138 38.5263V33.6053C110.138 33.5 110.164 33.4211 110.243 33.3684C110.296 33.3158 110.375 33.2895 110.454 33.2895H110.822C110.901 33.2895 110.98 33.2895 111.032 33.3158C111.085 33.3158 111.137 33.3421 111.19 33.3947C111.243 33.4211 111.269 33.4737 111.322 33.5263C111.374 33.579 111.4 33.6579 111.453 33.7368L112.768 36.079C112.847 36.2105 112.926 36.3684 113.005 36.5C113.084 36.6316 113.163 36.7632 113.216 36.8947C113.294 37.0263 113.347 37.1579 113.426 37.2895C113.505 37.4211 113.557 37.5526 113.636 37.6842C113.636 37.4737 113.636 37.2368 113.636 37C113.636 36.7632 113.636 36.5263 113.636 36.3158V33.4211C113.636 33.3947 113.636 33.3947 113.663 33.3684C113.663 33.3421 113.689 33.3421 113.715 33.3158C113.742 33.3158 113.794 33.2895 113.821 33.2895C113.873 33.2895 113.926 33.2895 114.005 33.2895C114.084 33.2895 114.136 33.2895 114.189 33.2895C114.241 33.2895 114.268 33.3158 114.294 33.3158C114.32 33.3158 114.347 33.3421 114.347 33.3684C114.347 33.3947 114.373 33.3947 114.373 33.4211V38.3158H114.32Z" fill="black"/>
<path d="M120.607 37.8421C120.607 37.8947 120.607 37.9211 120.607 37.9474C120.607 37.9737 120.607 38 120.581 38.0263C120.581 38.0526 120.555 38.079 120.555 38.1053C120.555 38.1316 120.528 38.1579 120.502 38.1842C120.476 38.2105 120.423 38.2632 120.318 38.3158C120.213 38.3684 120.107 38.4211 119.976 38.4737C119.844 38.5263 119.687 38.5789 119.502 38.6053C119.318 38.6316 119.134 38.6579 118.924 38.6579C118.555 38.6579 118.24 38.6053 117.924 38.4737C117.635 38.3684 117.372 38.1842 117.161 37.9737C116.951 37.7368 116.793 37.4737 116.688 37.1316C116.583 36.7895 116.53 36.4211 116.53 35.9737C116.53 35.5263 116.583 35.1316 116.714 34.7895C116.846 34.4474 117.004 34.1579 117.214 33.8947C117.424 33.6579 117.687 33.4737 118.003 33.3421C118.319 33.2105 118.634 33.1579 119.003 33.1579C119.161 33.1579 119.318 33.1842 119.476 33.2105C119.634 33.2368 119.766 33.2632 119.897 33.3158C120.029 33.3684 120.134 33.4211 120.239 33.4737C120.344 33.5263 120.423 33.5789 120.449 33.6053C120.502 33.6316 120.502 33.6579 120.528 33.6842C120.528 33.7105 120.555 33.7368 120.555 33.7632C120.555 33.7895 120.581 33.8158 120.581 33.8684C120.581 33.8947 120.581 33.9474 120.581 34C120.581 34.0526 120.581 34.1053 120.581 34.1316C120.581 34.1579 120.555 34.2105 120.555 34.2368C120.555 34.2632 120.528 34.2895 120.502 34.2895C120.476 34.2895 120.476 34.3158 120.449 34.3158C120.397 34.3158 120.344 34.2895 120.265 34.2368C120.186 34.1842 120.107 34.1316 119.976 34.0526C119.871 34 119.713 33.9211 119.555 33.8684C119.397 33.8158 119.187 33.7895 118.95 33.7895C118.687 33.7895 118.477 33.8421 118.266 33.9211C118.056 34.0263 117.872 34.1579 117.74 34.3421C117.582 34.5263 117.477 34.7632 117.398 35.0263C117.319 35.2895 117.267 35.6053 117.267 35.9474C117.267 36.2895 117.293 36.579 117.372 36.8421C117.451 37.1053 117.556 37.3158 117.714 37.5C117.845 37.6842 118.029 37.8158 118.24 37.8947C118.45 37.9737 118.687 38.0263 118.95 38.0263C119.187 38.0263 119.371 38 119.529 37.9474C119.687 37.8947 119.844 37.8421 119.95 37.7632C120.081 37.7105 120.16 37.6316 120.239 37.579C120.318 37.5263 120.371 37.5 120.423 37.5C120.449 37.5 120.449 37.5 120.476 37.5C120.502 37.5 120.502 37.5263 120.502 37.5526C120.502 37.5789 120.528 37.6053 120.528 37.6579C120.581 37.7368 120.607 37.7895 120.607 37.8421ZM125.737 38.3158C125.737 38.3684 125.737 38.4211 125.737 38.4474C125.737 38.4737 125.71 38.5263 125.71 38.5526C125.684 38.579 125.684 38.6053 125.658 38.6053C125.631 38.6053 125.605 38.6316 125.605 38.6316H122.896C122.817 38.6316 122.764 38.6053 122.712 38.579C122.659 38.5263 122.633 38.4737 122.633 38.3421V33.579C122.633 33.4737 122.659 33.3947 122.712 33.3421C122.764 33.2895 122.843 33.2895 122.896 33.2895H125.579C125.605 33.2895 125.631 33.2895 125.631 33.3158C125.658 33.3158 125.658 33.3421 125.684 33.3684C125.684 33.3947 125.71 33.4211 125.71 33.4737C125.71 33.5 125.71 33.5526 125.71 33.6053C125.71 33.6579 125.71 33.7105 125.71 33.7368C125.71 33.7632 125.684 33.8158 125.684 33.8158C125.684 33.8421 125.658 33.8684 125.631 33.8684C125.605 33.8684 125.579 33.8947 125.579 33.8947H123.369V35.5789H125.263C125.29 35.5789 125.316 35.579 125.316 35.6053C125.342 35.6053 125.342 35.6316 125.368 35.6579C125.395 35.6842 125.395 35.7105 125.395 35.7368C125.395 35.7895 125.395 35.8158 125.395 35.8684C125.395 35.9211 125.395 35.9737 125.395 36C125.395 36.0263 125.368 36.0526 125.368 36.079C125.342 36.1053 125.342 36.1053 125.316 36.1316C125.29 36.1316 125.263 36.1579 125.263 36.1579H123.369V38.0789H125.605C125.631 38.0789 125.658 38.079 125.658 38.1053C125.684 38.1053 125.684 38.1316 125.71 38.1579C125.737 38.1842 125.737 38.2105 125.737 38.2368C125.737 38.2105 125.737 38.2632 125.737 38.3158ZM128.709 38.5C128.709 38.5263 128.709 38.5526 128.683 38.5526C128.683 38.579 128.657 38.579 128.63 38.579C128.604 38.579 128.551 38.6053 128.525 38.6053C128.472 38.6053 128.42 38.6053 128.341 38.6053C128.262 38.6053 128.209 38.6053 128.157 38.6053C128.104 38.6053 128.078 38.579 128.052 38.579C128.025 38.579 127.999 38.5526 127.999 38.5526C127.999 38.5263 127.973 38.5263 127.973 38.5V33.3684C127.973 33.3421 127.973 33.3158 127.999 33.3158C128.025 33.2895 128.025 33.2895 128.052 33.2632C128.078 33.2632 128.13 33.2368 128.157 33.2368C128.209 33.2368 128.262 33.2368 128.341 33.2368C128.42 33.2368 128.472 33.2368 128.525 33.2368C128.578 33.2368 128.604 33.2632 128.63 33.2632C128.657 33.2632 128.683 33.2895 128.683 33.3158C128.683 33.3421 128.709 33.3421 128.709 33.3684V38.5ZM134.97 38.5C134.97 38.5263 134.97 38.5526 134.943 38.5526C134.943 38.579 134.917 38.5789 134.891 38.6053C134.864 38.6053 134.812 38.6316 134.759 38.6316C134.707 38.6316 134.628 38.6316 134.549 38.6316C134.47 38.6316 134.417 38.6316 134.365 38.6316C134.312 38.6316 134.286 38.6053 134.259 38.6053C134.233 38.6053 134.207 38.579 134.181 38.5526C134.154 38.5263 134.154 38.5 134.128 38.4737L133.602 37.2105C133.549 37.0789 133.47 36.9474 133.418 36.8158C133.365 36.6842 133.286 36.6053 133.181 36.5C133.102 36.4211 132.997 36.3421 132.865 36.2895C132.734 36.2368 132.602 36.2105 132.418 36.2105H131.918V38.5C131.918 38.5263 131.918 38.5526 131.892 38.5526C131.866 38.579 131.866 38.579 131.839 38.579C131.813 38.579 131.787 38.6053 131.734 38.6053C131.682 38.6053 131.629 38.6053 131.55 38.6053C131.471 38.6053 131.419 38.6053 131.366 38.6053C131.313 38.6053 131.287 38.579 131.261 38.579C131.234 38.579 131.208 38.5526 131.208 38.5526C131.208 38.5263 131.182 38.5263 131.182 38.5V33.5526C131.182 33.4474 131.208 33.3684 131.261 33.3158C131.313 33.2632 131.392 33.2632 131.445 33.2632H132.655C132.786 33.2632 132.918 33.2632 133.023 33.2632C133.128 33.2632 133.207 33.2895 133.286 33.2895C133.497 33.3158 133.707 33.3947 133.865 33.4474C134.023 33.5263 134.181 33.6316 134.286 33.7368C134.391 33.8684 134.496 34 134.549 34.1316C134.601 34.2895 134.628 34.4474 134.628 34.6316C134.628 34.8158 134.601 34.9737 134.549 35.1053C134.496 35.2368 134.417 35.3684 134.338 35.4737C134.233 35.579 134.128 35.6842 133.996 35.7632C133.865 35.8421 133.707 35.9211 133.549 35.9737C133.654 36.0263 133.733 36.0526 133.812 36.1316C133.891 36.1842 133.97 36.2632 134.023 36.3421C134.075 36.4211 134.154 36.5263 134.207 36.6316C134.259 36.7368 134.312 36.8684 134.391 37L134.891 38.1842C134.943 38.2895 134.97 38.3421 134.97 38.3947C134.97 38.4474 134.97 38.4737 134.97 38.5ZM133.839 34.7368C133.839 34.5263 133.786 34.3421 133.681 34.2105C133.576 34.079 133.418 33.9737 133.181 33.8947C133.102 33.8684 133.023 33.8684 132.944 33.8421C132.865 33.8421 132.734 33.8421 132.576 33.8421H131.945V35.6316H132.681C132.892 35.6316 133.049 35.6053 133.181 35.5526C133.312 35.5 133.444 35.4474 133.549 35.3684C133.654 35.2895 133.707 35.1842 133.76 35.079C133.812 35 133.839 34.8684 133.839 34.7368ZM141.704 35.8684C141.704 36.2895 141.651 36.6842 141.546 37.0263C141.441 37.3684 141.283 37.6579 141.072 37.9211C140.862 38.1579 140.599 38.3421 140.257 38.4737C139.941 38.6053 139.547 38.6579 139.126 38.6579C138.705 38.6579 138.337 38.6053 138.021 38.4737C137.705 38.3421 137.469 38.1842 137.258 37.9474C137.048 37.7105 136.916 37.4474 136.811 37.1053C136.706 36.7632 136.653 36.3684 136.653 35.9474C136.653 35.5263 136.706 35.1316 136.811 34.7895C136.916 34.4474 137.074 34.1579 137.284 33.9211C137.495 33.6842 137.758 33.5 138.1 33.3684C138.416 33.2368 138.784 33.1842 139.231 33.1842C139.652 33.1842 139.994 33.2368 140.31 33.3684C140.625 33.4737 140.862 33.6579 141.072 33.8947C141.283 34.1316 141.441 34.3947 141.52 34.7368C141.651 35.0526 141.704 35.4474 141.704 35.8684ZM140.888 35.9211C140.888 35.6316 140.862 35.3421 140.809 35.079C140.757 34.8158 140.651 34.6053 140.52 34.3947C140.388 34.2105 140.204 34.0526 139.994 33.9474C139.783 33.8421 139.494 33.7895 139.178 33.7895C138.863 33.7895 138.573 33.8421 138.363 33.9737C138.153 34.079 137.968 34.2368 137.837 34.4474C137.705 34.6316 137.6 34.8684 137.548 35.1316C137.495 35.3947 137.469 35.6579 137.469 35.9474C137.469 36.2632 137.495 36.5526 137.548 36.8158C137.6 37.0789 137.705 37.3158 137.837 37.5C137.968 37.6842 138.153 37.8421 138.363 37.9474C138.573 38.0526 138.863 38.1053 139.178 38.1053C139.494 38.1053 139.783 38.0526 139.994 37.9211C140.204 37.8158 140.388 37.6579 140.546 37.4474C140.678 37.2632 140.783 37.0263 140.836 36.7632C140.862 36.4737 140.888 36.2105 140.888 35.9211ZM146.912 37.1053C146.912 37.3421 146.859 37.579 146.754 37.7632C146.649 37.9474 146.517 38.1316 146.36 38.2632C146.175 38.3947 145.991 38.5 145.755 38.579C145.518 38.6579 145.281 38.6842 144.992 38.6842C144.808 38.6842 144.623 38.6579 144.466 38.6316C144.308 38.6053 144.15 38.5526 144.045 38.5263C143.913 38.4737 143.808 38.4474 143.729 38.3947C143.65 38.3421 143.571 38.3158 143.545 38.2632C143.519 38.2368 143.492 38.1842 143.466 38.1316C143.44 38.0789 143.44 38.0263 143.44 37.9211C143.44 37.8684 143.44 37.8158 143.44 37.7632C143.44 37.7368 143.466 37.6842 143.466 37.6579C143.466 37.6316 143.492 37.6053 143.519 37.6053C143.545 37.6053 143.545 37.579 143.571 37.579C143.624 37.579 143.677 37.6053 143.755 37.6579C143.834 37.7105 143.913 37.7632 144.045 37.8158C144.15 37.8684 144.308 37.9211 144.466 37.9737C144.623 38.0263 144.808 38.0526 145.044 38.0526C145.202 38.0526 145.36 38.0263 145.492 38C145.623 37.9474 145.755 37.8947 145.834 37.8158C145.939 37.7368 146.018 37.6579 146.07 37.5263C146.123 37.4211 146.149 37.2895 146.149 37.1579C146.149 37 146.123 36.8684 146.044 36.7632C145.965 36.6579 145.886 36.5526 145.755 36.4737C145.623 36.3947 145.492 36.3158 145.36 36.2632C145.202 36.1842 145.044 36.1316 144.887 36.0526C144.729 35.9737 144.571 35.8947 144.413 35.8158C144.255 35.7368 144.124 35.6316 144.018 35.5263C143.887 35.4211 143.808 35.2632 143.729 35.1316C143.65 34.9737 143.624 34.7895 143.624 34.5789C143.624 34.3421 143.677 34.1579 143.755 33.9737C143.834 33.7895 143.966 33.6579 144.124 33.5263C144.282 33.4211 144.466 33.3158 144.676 33.2632C144.887 33.2105 145.123 33.1579 145.36 33.1579C145.492 33.1579 145.597 33.1579 145.728 33.1842C145.86 33.2105 145.965 33.2368 146.097 33.2632C146.202 33.2895 146.307 33.3421 146.386 33.3684C146.465 33.4211 146.517 33.4474 146.57 33.4737C146.596 33.5 146.623 33.5263 146.623 33.5263C146.623 33.5526 146.649 33.5526 146.649 33.579C146.649 33.6053 146.649 33.6316 146.675 33.6579C146.675 33.6842 146.675 33.7368 146.675 33.7895C146.675 33.8421 146.675 33.8947 146.675 33.9211C146.675 33.9474 146.675 34 146.649 34.0263C146.649 34.0526 146.623 34.079 146.623 34.079C146.596 34.079 146.596 34.1053 146.57 34.1053C146.544 34.1053 146.491 34.0789 146.412 34.0526C146.333 34.0263 146.254 33.9737 146.149 33.9211C146.044 33.8684 145.939 33.8421 145.807 33.7895C145.676 33.7368 145.518 33.7368 145.36 33.7368C145.202 33.7368 145.071 33.7632 144.939 33.7895C144.834 33.8421 144.729 33.8947 144.65 33.9474C144.571 34.0263 144.518 34.0789 144.492 34.1842C144.466 34.2632 144.439 34.3684 144.439 34.4737C144.439 34.6316 144.466 34.7368 144.545 34.8684C144.623 34.9737 144.702 35.079 144.834 35.1579C144.965 35.2368 145.097 35.3158 145.255 35.3947C145.413 35.4737 145.57 35.5263 145.728 35.6053C145.886 35.6842 146.044 35.7632 146.202 35.8421C146.36 35.9211 146.491 36.0263 146.623 36.1316C146.754 36.2368 146.833 36.3684 146.912 36.5263C146.886 36.7105 146.912 36.8947 146.912 37.1053Z" fill="black"/>
<path d="M166.982 36.6842L180.398 39.5263L164.825 46.3684L152.278 43.5L166.982 36.6842Z" fill="#B4B4B3"/>
<path d="M162.616 43.5H152.278V33.2369H172.954L162.616 43.5Z" fill="url(#paint0_linear_207_530)"/>
<path d="M170.034 39.6053H180.398V49.8684H159.696L170.034 39.6053Z" fill="#0FA1D9"/>
<path d="M167.64 45.3947C167.798 45.3684 168.035 45.3421 168.377 45.3421C168.719 45.3421 168.955 45.3947 169.113 45.5263C169.271 45.6579 169.376 45.8421 169.376 46.0789C169.376 46.3158 169.297 46.5263 169.166 46.6579C168.982 46.8421 168.692 46.921 168.377 46.921C168.298 46.921 168.245 46.921 168.193 46.921V47.7895H167.666V45.3947H167.64ZM168.166 46.4737C168.219 46.4737 168.271 46.5 168.35 46.5C168.64 46.5 168.824 46.3421 168.824 46.1053C168.824 45.8947 168.666 45.7632 168.403 45.7632C168.298 45.7632 168.219 45.7632 168.193 45.7895V46.4737H168.166Z" fill="white"/>
<path d="M170.718 47.7632L170.692 47.579C170.586 47.7105 170.402 47.7895 170.192 47.7895C169.85 47.7895 169.639 47.5263 169.639 47.2632C169.639 46.8158 170.034 46.6053 170.665 46.6053V46.579C170.665 46.4737 170.613 46.3421 170.35 46.3421C170.165 46.3421 170.034 46.4474 169.929 46.579L169.745 46.3421C169.824 46.2369 170.113 45.9737 170.429 45.9737C171.007 45.9737 171.191 46.3158 171.191 46.7369V47.3421C171.191 47.5 171.191 47.6579 171.218 47.7632H170.718ZM170.665 46.9474C170.376 46.9474 170.165 47.0263 170.165 47.2105C170.165 47.3421 170.244 47.4211 170.376 47.4211C170.507 47.4211 170.613 47.3421 170.665 47.2105C170.665 47.1842 170.665 47.1579 170.665 47.1053V46.9474Z" fill="white"/>
<path d="M171.507 46.579C171.507 46.3158 171.507 46.1579 171.481 46H171.954L171.98 46.3158H172.007C172.086 46.0526 172.296 45.9474 172.48 45.9474C172.533 45.9474 172.559 45.9474 172.585 45.9474V46.4474C172.533 46.4474 172.507 46.4211 172.428 46.4211C172.217 46.4211 172.086 46.5263 172.059 46.6842C172.059 46.7105 172.059 46.7632 172.059 46.8158V47.6842H171.507V46.579Z" fill="white"/>
<path d="M173.532 45.5263V46.0263H173.927V46.421H173.532V47.0526C173.532 47.2631 173.585 47.3684 173.743 47.3684C173.822 47.3684 173.874 47.3684 173.901 47.3421V47.7631C173.822 47.7895 173.69 47.8158 173.559 47.8158C173.375 47.8158 173.243 47.7631 173.164 47.6579C173.059 47.5526 173.006 47.3947 173.006 47.1316V46.421H172.77V46.0263H173.006V45.5263H173.532Z" fill="white"/>
<path d="M174.216 46.579C174.216 46.3684 174.216 46.1842 174.19 46.0263H174.664L174.69 46.2632C174.769 46.1579 174.927 45.9737 175.216 45.9737C175.584 45.9737 175.847 46.2105 175.847 46.7105V47.7369H175.295V46.7632C175.295 46.5263 175.216 46.3947 175.032 46.3947C174.874 46.3947 174.795 46.5 174.769 46.6053C174.743 46.6316 174.743 46.6842 174.743 46.7369V47.7369H174.19V46.579H174.216Z" fill="white"/>
<path d="M176.715 47.0526C176.742 47.2895 176.952 47.3947 177.215 47.3947C177.399 47.3947 177.478 47.3158 177.636 47.2632L177.794 47.5263C177.636 47.6579 177.373 47.7895 177.136 47.7895C176.558 47.7895 176.216 47.4474 176.216 46.8947C176.216 46.4474 176.479 45.9737 177.084 45.9737C177.636 45.9737 177.873 46.4211 177.873 46.8421C177.873 46.9474 177.873 47.0263 177.846 47.0526H176.715ZM177.347 46.6842C177.347 46.5526 177.294 46.3421 177.031 46.3421C176.794 46.3421 176.715 46.5526 176.689 46.6842H177.347Z" fill="white"/>
<path d="M178.188 46.579C178.188 46.3158 178.188 46.1579 178.162 46H178.636L178.662 46.3158H178.688C178.767 46.0526 178.978 45.9474 179.162 45.9474C179.214 45.9474 179.241 45.9474 179.267 45.9474V46.4474C179.214 46.4474 179.188 46.4211 179.109 46.4211C178.899 46.4211 178.767 46.5263 178.741 46.6842C178.741 46.7105 178.741 46.7632 178.741 46.8158V47.6842H178.188V46.579Z" fill="white"/>
<path d="M153.146 39.7369C153.567 39.9474 154.014 40.2106 154.751 40.2106C155.356 40.2106 155.645 40.0263 155.645 39.7105C155.645 39.4474 155.356 39.2632 154.593 39.0527C153.515 38.7632 152.62 38.1842 152.62 37.1053C152.62 35.9474 153.646 35.1053 155.303 35.1053C156.171 35.1053 156.908 35.4737 157.408 35.6579L156.697 36.8684C156.408 36.7369 156.013 36.5263 155.277 36.5263C154.751 36.5263 154.462 36.6842 154.462 36.9737C154.462 37.3158 154.856 37.4211 155.698 37.6842C156.934 38.079 157.513 38.6842 157.513 39.6316C157.513 40.6842 156.671 41.6842 154.646 41.6842C153.804 41.6842 152.936 41.2895 152.541 41.079L153.146 39.7369Z" fill="white"/>
<path d="M162.484 35.2895C162.484 35.2895 163.694 35.2895 164.799 35.2895C165.746 35.2895 166.22 35.4737 166.667 35.7895C167.114 36.1053 167.43 36.6579 167.43 37.3421C167.43 37.9474 167.219 38.5263 166.798 38.8948C166.246 39.3684 165.694 39.579 164.72 39.579C164.51 39.579 164.352 39.5526 164.247 39.5526V41.5263H162.484V35.2895ZM164.247 38.2369C164.352 38.2632 164.484 38.2632 164.72 38.2632C165.404 38.2632 165.904 37.9474 165.904 37.3684C165.904 36.8948 165.562 36.6053 164.852 36.6053C164.562 36.6053 164.352 36.6316 164.273 36.6316V38.2369H164.247Z" fill="white"/>
<path d="M160.775 35.2105H158.933L157.986 37.921L157.907 38.1579L156.724 41.5526H158.486L158.749 40.6052C159.065 40.7368 159.433 40.7895 159.828 40.7895C160.248 40.7895 160.617 40.7105 160.932 40.5789L161.222 41.5526H162.984L160.775 35.2105ZM159.328 38.6316L159.459 38.1579C159.538 37.8684 159.617 37.5 159.696 37.1579C159.722 37.0789 159.722 37.0263 159.749 36.9474H159.775C159.801 37 159.828 37.0789 159.828 37.1579C159.933 37.4737 160.038 37.8421 160.117 38.1316L160.248 38.6052L160.433 39.2631C160.222 39.3158 160.012 39.3421 159.775 39.3421C159.538 39.3421 159.328 39.3158 159.117 39.2631L159.328 38.6316Z" fill="white"/>
<path d="M157.986 49.7895V49.2106H157.776V49.079H158.328V49.2106H158.118V49.7895H157.986Z" fill="#231F20"/>
<path d="M158.407 49.7895V49.079H158.618L158.749 49.5527L158.881 49.079H159.091V49.7895H158.96V49.2369L158.828 49.7895H158.697L158.565 49.2369V49.7895H158.407Z" fill="#231F20"/>
<defs>
<linearGradient id="paint0_linear_207_530" x1="162.613" y1="43.5109" x2="162.613" y2="33.2396" gradientUnits="userSpaceOnUse">
<stop stop-color="#2063AE"/>
<stop offset="1" stop-color="#24A3DC"/>
</linearGradient>
</defs>
</svg>
